HIERARCHY
ROOT Hips
{
	OFFSET 0.000000 0.000000 0.000000
	CHANNELS 6 Xposition Yposition Zposition Zrotation Yrotation Xrotation 
	JOINT LeftUpLeg_virtual
	{
		OFFSET 0.000000 0.000000 0.000000
		CHANNELS 3 Zrotation Yrotation Xrotation
		JOINT LeftUpLeg
		{
			OFFSET 10.205400 -3.823500 0.155100
			CHANNELS 3 Zrotation Yrotation Xrotation
			JOINT LeftLeg
			{
				OFFSET 0.708757 -12.982077 0.567790
				CHANNELS 3 Zrotation Yrotation Xrotation
				JOINT LeftFoot
				{
					OFFSET -0.708756 -10.717838 -2.184338
					CHANNELS 3 Zrotation Yrotation Xrotation
					JOINT LeftToeBase
					{
						OFFSET 0.108149 -7.191104 7.560241
						CHANNELS 3 Zrotation Yrotation Xrotation
						End Site
						{
							OFFSET 0.000000 0.000000 0.000000
						}
					}
				}
			}
		}
	}
	JOINT RightUpLeg_virtual
	{
		OFFSET 0.000000 0.000000 0.000000
		CHANNELS 3 Zrotation Yrotation Xrotation
		JOINT RightUpLeg
		{
			OFFSET -10.205400 -3.823500 0.005500
			CHANNELS 3 Zrotation Yrotation Xrotation
			JOINT RightLeg
			{
				OFFSET -0.708756 -12.982134 0.610632
				CHANNELS 3 Zrotation Yrotation Xrotation
				JOINT RightFoot
				{
					OFFSET 0.708754 -10.717769 -1.945823
					CHANNELS 3 Zrotation Yrotation Xrotation
					JOINT RightToeBase
					{
						OFFSET -0.108140 -7.191069 7.372968
						CHANNELS 3 Zrotation Yrotation Xrotation
						End Site
						{
							OFFSET 0.000000 0.000000 0.000000
						}
					}
				}
			}
		}
	}
	JOINT Spine_virtual
	{
		OFFSET 0.000000 0.000000 0.000000
		CHANNELS 3 Zrotation Yrotation Xrotation
		JOINT Spine
		{
			OFFSET 0.000000 6.876099 0.125700
			CHANNELS 3 Zrotation Yrotation Xrotation
			JOINT Spine1
			{
				OFFSET 0.000000 8.022060 0.146608
				CHANNELS 3 Zrotation Yrotation Xrotation
				JOINT Spine2
				{
					OFFSET 0.000000 9.168068 0.167552
					CHANNELS 3 Zrotation Yrotation Xrotation
					JOINT Neck_virtual
					{
						OFFSET 0.000000 0.000000 0.000000
						CHANNELS 3 Zrotation Yrotation Xrotation
						JOINT Neck
						{
							OFFSET 0.000000 10.314075 0.188496
							CHANNELS 3 Zrotation Yrotation Xrotation
							JOINT Head
							{
								OFFSET 0.000000 7.643700 -2.377400
								CHANNELS 3 Zrotation Yrotation Xrotation
								End Site
								{
									OFFSET 0.000000 0.000000 0.000000
								}
							}
						}
					}
					JOINT LeftShoulder_virtual
					{
						OFFSET 0.000000 0.000000 0.000000
						CHANNELS 3 Zrotation Yrotation Xrotation
						JOINT LeftShoulder
						{
							OFFSET 4.392200 8.824978 0.174984
							CHANNELS 3 Zrotation Yrotation Xrotation
							JOINT LeftArm
							{
								OFFSET 8.771219 -2.981674 -0.026999
								CHANNELS 3 Zrotation Yrotation Xrotation
								JOINT LeftForeArm
								{
									OFFSET 8.512804 0.000000 -0.000000
									CHANNELS 3 Zrotation Yrotation Xrotation
									JOINT LeftHand
									{
										OFFSET 18.484802 0.000000 -0.000000
										CHANNELS 3 Zrotation Yrotation Xrotation
										End Site
										{
											OFFSET 0.000000 0.000000 0.000000
										}
									}
								}
							}
						}
					}
					JOINT RightShoulder_virtual
					{
						OFFSET 0.000000 0.000000 0.000000
						CHANNELS 3 Zrotation Yrotation Xrotation
						JOINT RightShoulder
						{
							OFFSET -4.392200 8.824993 0.141379
							CHANNELS 3 Zrotation Yrotation Xrotation
							JOINT RightArm
							{
								OFFSET -8.771282 -2.981682 -0.094208
								CHANNELS 3 Zrotation Yrotation Xrotation
								JOINT RightForeArm
								{
									OFFSET -8.494598 0.000000 0.000000
									CHANNELS 3 Zrotation Yrotation Xrotation
									JOINT RightHand
									{
										OFFSET -18.483803 0.000000 0.000001
										CHANNELS 3 Zrotation Yrotation Xrotation
										End Site
										{
											OFFSET 0.000000 0.000000 0.000000
										}
									}
								}
							}
						}
					}
				}
			}
		}
	}
}
MOTION
Frames: 5
Frame Time: 0.033333
3.871656 35.404366 -53.435658 179.663236 -34.519206 179.056606 -1.064947 -0.759021 35.721596 -0.870904 0.021152 -52.049733 2.327451 9.184673 11.050087 -5.846708 -0.459656 15.295205 0.000000 0.000000 0.000000 5.598080 -2.436783 35.563272 -4.776756 -2.198376 -55.055607 -1.188827 8.763257 23.099819 2.808753 0.184429 13.811527 0.000000 0.000000 0.000000 5.267966 -1.635708 46.486783 8.021292 3.065675 42.123371 -6.399825 -7.576251 7.142698 0.011375 -0.080308 -0.078150 -5.347531 -8.128875 9.915776 2.329752 -6.566946 7.053912 0.000000 0.000000 0.000000 -3.757625 -6.740323 3.542536 5.685915 1.031957 1.036129 19.827185 -19.285919 -60.966323 -55.634790 -73.062752 35.291594 0.000000 0.000000 0.000000 -8.774777 -5.460897 4.117306 17.116946 9.237307 -10.726483 18.670267 39.099343 20.992641 -14.340920 40.559869 -4.975466 0.000000 0.000000 0.000000 
3.847013 35.410076 -53.503227 179.641447 -34.874089 179.103160 -1.046037 -0.766912 35.637789 -0.818076 -0.114253 -52.027009 2.334276 9.202387 11.151618 -5.677635 -0.645695 15.291837 0.000000 0.000000 0.000000 5.614092 -2.576854 35.565307 -4.838076 -2.181260 -55.045536 -1.083109 8.655016 23.493778 2.615818 0.120464 13.690002 0.000000 0.000000 0.000000 5.362573 -1.619624 46.367313 8.004667 3.029836 42.065154 -6.404491 -7.603813 7.085570 0.046925 -0.068424 -0.060526 -5.427945 -7.871421 9.835532 2.234702 -6.908918 6.665331 0.000000 0.000000 0.000000 -3.826493 -6.743383 3.438358 5.951335 1.057650 0.982876 19.534712 -19.837451 -60.938545 -55.896301 -73.256333 35.742004 0.000000 0.000000 0.000000 -8.909323 -5.478238 4.039185 17.543115 8.979271 -10.628731 18.843119 39.288300 21.183337 -14.421004 40.648146 -4.970171 0.000000 0.000000 0.000000 
3.812895 35.426060 -53.599937 179.729693 -35.115194 179.079528 -0.894364 -0.614460 35.555929 -0.775393 -0.203527 -51.961767 2.140056 9.309018 11.160313 -5.465647 -0.899280 15.345784 0.000000 0.000000 0.000000 5.780909 -2.488780 35.602962 -5.043602 -2.067235 -54.976742 -1.021681 8.646838 23.934624 2.491866 0.067498 13.709732 0.000000 0.000000 0.000000 5.452958 -1.495754 46.297041 8.051615 3.041313 41.968593 -6.494863 -7.623491 6.959206 0.003453 -0.060358 -0.072660 -5.460026 -8.124555 9.723566 2.143772 -7.092566 6.249211 0.000000 0.000000 0.000000 -3.845090 -6.784740 3.406076 6.047844 1.062064 1.004903 19.432735 -20.279677 -60.636575 -55.932020 -73.337490 36.031526 0.000000 0.000000 0.000000 -8.919287 -5.454400 3.968369 17.852455 8.894964 -10.393219 19.416997 39.350209 21.522450 -14.469252 40.682584 -4.983816 0.000000 0.000000 0.000000 
3.759267 35.469048 -53.718227 179.691403 -35.440124 179.114635 -0.899537 -0.469179 35.476125 -0.586432 -0.347446 -51.846142 1.968556 9.445928 11.154273 -5.266700 -1.264191 15.508510 0.000000 0.000000 0.000000 5.908637 -2.558225 35.683026 -5.146340 -2.155919 -54.885833 -0.892983 8.532086 24.303017 2.284805 -0.108839 13.936309 0.000000 0.000000 0.000000 5.515294 -1.427176 46.254130 8.163533 2.975463 41.857230 -6.505472 -7.663259 6.796971 0.006334 -0.099682 -0.043014 -5.488834 -8.140253 9.524709 1.873833 -7.261405 5.776065 0.000000 0.000000 0.000000 -3.887627 -6.739630 3.291641 5.974362 1.118746 0.922950 19.237965 -20.888834 -60.030779 -55.735197 -73.162937 36.061534 0.000000 0.000000 0.000000 -8.955014 -5.558831 3.854236 18.057239 8.981255 -10.162530 20.303502 39.309979 21.956948 -14.487005 40.836028 -4.995609 0.000000 0.000000 0.000000 
3.708588 35.536190 -53.885780 179.737767 -35.676185 179.148950 -0.845057 -0.324540 35.452111 -0.255886 -0.452349 -51.748836 1.759896 9.586625 11.130395 -5.071219 -1.619491 15.765700 0.000000 0.000000 0.000000 6.192031 -2.544971 35.835438 -5.330007 -2.160899 -54.833995 -0.749504 8.449852 24.617779 2.119952 -0.284880 14.278211 0.000000 0.000000 0.000000 5.588688 -1.383611 46.105221 8.305048 2.871416 41.860778 -6.495720 -7.653945 6.712371 0.002123 -0.050299 -0.079083 -5.468398 -8.105491 9.320872 1.508654 -7.371017 5.192530 0.000000 0.000000 0.000000 -3.906630 -6.763837 3.188329 5.696599 1.141053 0.979543 19.476039 -21.274636 -59.468073 -54.290766 -72.814645 34.896447 0.000000 0.000000 0.000000 -8.930358 -5.595123 3.692901 18.111785 9.161403 -9.826812 21.377261 39.226350 22.369223 -14.585961 40.980985 -5.023398 0.000000 0.000000 0.000000 
